G04 #@! TF.FileFunction,Soldermask,Top*
%FSLAX46Y46*%
G04 Gerber Fmt 4.6, Leading zero omitted, Abs format (unit mm)*
G04 Created by KiCad (PCBNEW 4.0.5) date Sunday, February 19, 2017 'PMt' 07:14:27 PM*
%MOMM*%
%LPD*%
G01*
G04 APERTURE LIST*
%ADD10C,0.100000*%
G04 APERTURE END LIST*
D10*
G36*
X162246170Y-135729217D02*
X162246175Y-135729219D01*
X162246217Y-135729223D01*
X162449845Y-135792256D01*
X162637350Y-135893640D01*
X162801593Y-136029514D01*
X162936317Y-136194701D01*
X163036389Y-136382910D01*
X163097999Y-136586972D01*
X163118800Y-136799115D01*
X163118800Y-136809685D01*
X163118694Y-136824934D01*
X163094933Y-137036766D01*
X163030480Y-137239948D01*
X162927789Y-137426742D01*
X162790772Y-137590032D01*
X162624649Y-137723599D01*
X162435745Y-137822355D01*
X162231258Y-137882539D01*
X162231217Y-137882543D01*
X162231213Y-137882544D01*
X162018977Y-137901859D01*
X161807030Y-137879583D01*
X161807025Y-137879581D01*
X161806983Y-137879577D01*
X161603355Y-137816544D01*
X161415850Y-137715160D01*
X161251607Y-137579286D01*
X161116883Y-137414099D01*
X161016811Y-137225890D01*
X160955201Y-137021828D01*
X160934400Y-136809685D01*
X160934400Y-136799115D01*
X160934506Y-136783866D01*
X160958267Y-136572034D01*
X161022720Y-136368852D01*
X161125411Y-136182058D01*
X161262428Y-136018768D01*
X161428551Y-135885201D01*
X161617455Y-135786445D01*
X161821942Y-135726261D01*
X161821983Y-135726257D01*
X161821987Y-135726256D01*
X162034223Y-135706941D01*
X162246170Y-135729217D01*
X162246170Y-135729217D01*
G37*
G36*
X165658800Y-137896600D02*
X163474400Y-137896600D01*
X163474400Y-135712200D01*
X165658800Y-135712200D01*
X165658800Y-137896600D01*
X165658800Y-137896600D01*
G37*
G36*
X152777545Y-135349581D02*
X153003491Y-135395962D01*
X153216140Y-135485351D01*
X153407369Y-135614337D01*
X153569903Y-135778009D01*
X153697549Y-135970133D01*
X153785449Y-136183393D01*
X153830183Y-136409318D01*
X153830183Y-136409329D01*
X153830250Y-136409668D01*
X153826571Y-136673130D01*
X153826495Y-136673464D01*
X153826495Y-136673477D01*
X153775469Y-136898066D01*
X153681651Y-137108785D01*
X153548687Y-137297273D01*
X153381646Y-137456345D01*
X153186890Y-137579941D01*
X152971832Y-137663356D01*
X152744676Y-137703410D01*
X152514059Y-137698579D01*
X152288774Y-137649047D01*
X152077400Y-137556700D01*
X151887993Y-137425059D01*
X151727759Y-137259132D01*
X151602806Y-137065242D01*
X151517890Y-136850769D01*
X151476252Y-136623901D01*
X151479472Y-136393257D01*
X151527431Y-136167630D01*
X151618298Y-135955619D01*
X151748617Y-135765293D01*
X151913420Y-135603906D01*
X152106434Y-135477602D01*
X152320304Y-135391192D01*
X152546880Y-135347971D01*
X152777545Y-135349581D01*
X152777545Y-135349581D01*
G37*
G36*
X173986545Y-135349581D02*
X174212491Y-135395962D01*
X174425140Y-135485351D01*
X174616369Y-135614337D01*
X174778903Y-135778009D01*
X174906549Y-135970133D01*
X174994449Y-136183393D01*
X175039183Y-136409318D01*
X175039183Y-136409329D01*
X175039250Y-136409668D01*
X175035571Y-136673130D01*
X175035495Y-136673464D01*
X175035495Y-136673477D01*
X174984469Y-136898066D01*
X174890651Y-137108785D01*
X174757687Y-137297273D01*
X174590646Y-137456345D01*
X174395890Y-137579941D01*
X174180832Y-137663356D01*
X173953676Y-137703410D01*
X173723059Y-137698579D01*
X173497774Y-137649047D01*
X173286400Y-137556700D01*
X173096993Y-137425059D01*
X172936759Y-137259132D01*
X172811806Y-137065242D01*
X172726890Y-136850769D01*
X172685252Y-136623901D01*
X172688472Y-136393257D01*
X172736431Y-136167630D01*
X172827298Y-135955619D01*
X172957617Y-135765293D01*
X173122420Y-135603906D01*
X173315434Y-135477602D01*
X173529304Y-135391192D01*
X173755880Y-135347971D01*
X173986545Y-135349581D01*
X173986545Y-135349581D01*
G37*
G36*
X165295000Y-134254000D02*
X163642600Y-134254000D01*
X163642600Y-132801600D01*
X165295000Y-132801600D01*
X165295000Y-134254000D01*
X165295000Y-134254000D01*
G37*
G36*
X162595000Y-134254000D02*
X160942600Y-134254000D01*
X160942600Y-132801600D01*
X162595000Y-132801600D01*
X162595000Y-134254000D01*
X162595000Y-134254000D01*
G37*
G36*
X167622220Y-134178040D02*
X166270940Y-134178040D01*
X166270940Y-132826760D01*
X167622220Y-132826760D01*
X167622220Y-134178040D01*
X167622220Y-134178040D01*
G37*
G36*
X169720260Y-134178040D02*
X168368980Y-134178040D01*
X168368980Y-132826760D01*
X169720260Y-132826760D01*
X169720260Y-134178040D01*
X169720260Y-134178040D01*
G37*
G36*
X174635583Y-129628749D02*
X174794293Y-129661328D01*
X174943666Y-129724118D01*
X175077990Y-129814722D01*
X175192159Y-129929690D01*
X175281821Y-130064643D01*
X175343565Y-130214444D01*
X175372754Y-130361860D01*
X175375036Y-130373387D01*
X175372452Y-130558451D01*
X175372374Y-130558794D01*
X175372374Y-130558798D01*
X175336555Y-130716455D01*
X175270655Y-130864469D01*
X175177257Y-130996868D01*
X175059921Y-131108606D01*
X174923117Y-131195425D01*
X174772057Y-131254017D01*
X174612494Y-131282153D01*
X174450501Y-131278759D01*
X174292253Y-131243966D01*
X174143777Y-131179098D01*
X174010733Y-131086630D01*
X173898180Y-130970078D01*
X173810408Y-130833882D01*
X173750760Y-130683229D01*
X173721513Y-130523872D01*
X173723774Y-130361860D01*
X173757462Y-130203372D01*
X173821290Y-130054449D01*
X173912831Y-129920758D01*
X174028593Y-129807395D01*
X174164173Y-129718674D01*
X174314402Y-129657977D01*
X174473555Y-129627618D01*
X174635583Y-129628749D01*
X174635583Y-129628749D01*
G37*
G36*
X166372800Y-129832000D02*
X164220400Y-129832000D01*
X164220400Y-128079600D01*
X166372800Y-128079600D01*
X166372800Y-129832000D01*
X166372800Y-129832000D01*
G37*
G36*
X162372800Y-129832000D02*
X160220400Y-129832000D01*
X160220400Y-128079600D01*
X162372800Y-128079600D01*
X162372800Y-129832000D01*
X162372800Y-129832000D01*
G37*
G36*
X168186100Y-126325630D02*
X164533580Y-126325630D01*
X164533580Y-124372370D01*
X168186100Y-124372370D01*
X168186100Y-126325630D01*
X168186100Y-126325630D01*
G37*
G36*
X173184820Y-126325630D02*
X169532300Y-126325630D01*
X169532300Y-124372370D01*
X173184820Y-124372370D01*
X173184820Y-126325630D01*
X173184820Y-126325630D01*
G37*
G36*
X169440600Y-120316052D02*
X169442611Y-120330205D01*
X169448486Y-120343236D01*
X169459431Y-120355531D01*
X170581146Y-121263879D01*
X170593410Y-121271222D01*
X170613115Y-121275200D01*
X172093685Y-121275200D01*
X172107838Y-121273189D01*
X172125654Y-121263879D01*
X173237369Y-120363629D01*
X173247102Y-120353160D01*
X173253533Y-120340393D01*
X173256200Y-120324150D01*
X173256200Y-120025200D01*
X174574600Y-120025200D01*
X174574600Y-122377600D01*
X168122200Y-122377600D01*
X168122200Y-120025200D01*
X169440600Y-120025200D01*
X169440600Y-120316052D01*
X169440600Y-120316052D01*
G37*
G36*
X156021800Y-121505400D02*
X154569400Y-121505400D01*
X154569400Y-119853000D01*
X156021800Y-119853000D01*
X156021800Y-121505400D01*
X156021800Y-121505400D01*
G37*
G36*
X158561800Y-121480000D02*
X157109400Y-121480000D01*
X157109400Y-119827600D01*
X158561800Y-119827600D01*
X158561800Y-121480000D01*
X158561800Y-121480000D01*
G37*
G36*
X162851895Y-117830000D02*
X162853906Y-117844153D01*
X162859781Y-117857184D01*
X162869053Y-117868064D01*
X162880989Y-117875929D01*
X162894644Y-117880158D01*
X162902695Y-117880800D01*
X163286895Y-117880800D01*
X163286895Y-118033544D01*
X163288906Y-118047697D01*
X163294781Y-118060728D01*
X163304053Y-118071608D01*
X163315989Y-118079473D01*
X163329644Y-118083702D01*
X163343937Y-118083959D01*
X163357735Y-118080224D01*
X163369946Y-118072793D01*
X163382293Y-118057813D01*
X163394032Y-118036102D01*
X163420928Y-118003591D01*
X163453627Y-117976922D01*
X163490883Y-117957113D01*
X163531277Y-117944917D01*
X163573270Y-117940800D01*
X164148155Y-117940800D01*
X164149083Y-117940806D01*
X164149090Y-117940807D01*
X164151139Y-117940821D01*
X164193071Y-117945524D01*
X164233290Y-117958283D01*
X164270266Y-117978610D01*
X164302589Y-118005733D01*
X164329028Y-118038617D01*
X164348577Y-118076010D01*
X164360491Y-118116488D01*
X164360494Y-118116524D01*
X164360497Y-118116533D01*
X164364317Y-118158507D01*
X164359912Y-118200424D01*
X164359908Y-118200438D01*
X164359904Y-118200473D01*
X164347427Y-118240781D01*
X164327358Y-118277898D01*
X164300462Y-118310409D01*
X164267763Y-118337078D01*
X164230507Y-118356887D01*
X164223591Y-118358975D01*
X164211727Y-118364478D01*
X164200949Y-118373868D01*
X164193214Y-118385889D01*
X164189134Y-118399589D01*
X164189032Y-118413883D01*
X164192916Y-118427640D01*
X164200479Y-118439770D01*
X164211122Y-118449313D01*
X164222936Y-118454998D01*
X164233290Y-118458283D01*
X164270266Y-118478610D01*
X164302589Y-118505733D01*
X164329028Y-118538617D01*
X164348577Y-118576010D01*
X164360491Y-118616488D01*
X164360494Y-118616524D01*
X164360497Y-118616533D01*
X164364317Y-118658507D01*
X164359912Y-118700424D01*
X164359908Y-118700438D01*
X164359904Y-118700473D01*
X164347427Y-118740781D01*
X164327358Y-118777898D01*
X164300462Y-118810409D01*
X164267763Y-118837078D01*
X164230507Y-118856887D01*
X164223591Y-118858975D01*
X164211727Y-118864478D01*
X164200949Y-118873868D01*
X164193214Y-118885889D01*
X164189134Y-118899589D01*
X164189032Y-118913883D01*
X164192916Y-118927640D01*
X164200479Y-118939770D01*
X164211122Y-118949313D01*
X164222936Y-118954998D01*
X164233290Y-118958283D01*
X164270266Y-118978610D01*
X164302589Y-119005733D01*
X164329028Y-119038617D01*
X164348577Y-119076010D01*
X164360491Y-119116488D01*
X164360494Y-119116524D01*
X164360497Y-119116533D01*
X164364317Y-119158507D01*
X164359912Y-119200424D01*
X164359908Y-119200438D01*
X164359904Y-119200473D01*
X164347427Y-119240781D01*
X164327358Y-119277898D01*
X164300462Y-119310409D01*
X164267763Y-119337078D01*
X164230507Y-119356887D01*
X164223591Y-119358975D01*
X164211727Y-119364478D01*
X164200949Y-119373868D01*
X164193214Y-119385889D01*
X164189134Y-119399589D01*
X164189032Y-119413883D01*
X164192916Y-119427640D01*
X164200479Y-119439770D01*
X164211122Y-119449313D01*
X164222936Y-119454998D01*
X164233290Y-119458283D01*
X164270266Y-119478610D01*
X164302589Y-119505733D01*
X164329028Y-119538617D01*
X164348577Y-119576010D01*
X164360491Y-119616488D01*
X164360494Y-119616524D01*
X164360497Y-119616533D01*
X164364317Y-119658507D01*
X164359912Y-119700424D01*
X164359908Y-119700438D01*
X164359904Y-119700473D01*
X164347427Y-119740781D01*
X164327358Y-119777898D01*
X164300462Y-119810409D01*
X164267763Y-119837078D01*
X164230507Y-119856887D01*
X164223591Y-119858975D01*
X164211727Y-119864478D01*
X164200949Y-119873868D01*
X164193214Y-119885889D01*
X164189134Y-119899589D01*
X164189032Y-119913883D01*
X164192916Y-119927640D01*
X164200479Y-119939770D01*
X164211122Y-119949313D01*
X164222936Y-119954998D01*
X164233290Y-119958283D01*
X164270266Y-119978610D01*
X164302589Y-120005733D01*
X164329028Y-120038617D01*
X164348577Y-120076010D01*
X164360491Y-120116488D01*
X164360494Y-120116524D01*
X164360497Y-120116533D01*
X164364317Y-120158507D01*
X164359912Y-120200424D01*
X164359908Y-120200438D01*
X164359904Y-120200473D01*
X164347427Y-120240781D01*
X164327358Y-120277898D01*
X164300462Y-120310409D01*
X164267763Y-120337078D01*
X164230507Y-120356887D01*
X164190113Y-120369083D01*
X164148120Y-120373200D01*
X163573235Y-120373200D01*
X163572307Y-120373194D01*
X163572300Y-120373193D01*
X163570251Y-120373179D01*
X163528319Y-120368476D01*
X163488100Y-120355717D01*
X163451124Y-120335390D01*
X163418801Y-120308267D01*
X163392362Y-120275383D01*
X163382613Y-120256736D01*
X163374375Y-120245266D01*
X163363131Y-120236439D01*
X163349873Y-120231093D01*
X163335651Y-120229653D01*
X163321591Y-120232232D01*
X163308806Y-120238626D01*
X163298309Y-120248329D01*
X163290930Y-120260572D01*
X163286895Y-120280412D01*
X163286895Y-120433200D01*
X162902695Y-120433200D01*
X162888542Y-120435211D01*
X162875511Y-120441086D01*
X162864631Y-120450358D01*
X162856766Y-120462294D01*
X162852537Y-120475949D01*
X162851895Y-120484000D01*
X162851895Y-121133200D01*
X161919495Y-121133200D01*
X161919495Y-120484000D01*
X161917484Y-120469847D01*
X161911609Y-120456816D01*
X161902337Y-120445936D01*
X161890401Y-120438071D01*
X161876746Y-120433842D01*
X161868695Y-120433200D01*
X161484495Y-120433200D01*
X161484495Y-120280456D01*
X161482484Y-120266303D01*
X161476609Y-120253272D01*
X161467337Y-120242392D01*
X161455401Y-120234527D01*
X161441746Y-120230298D01*
X161427453Y-120230041D01*
X161413655Y-120233776D01*
X161401444Y-120241207D01*
X161389097Y-120256187D01*
X161377358Y-120277898D01*
X161350462Y-120310409D01*
X161317763Y-120337078D01*
X161280507Y-120356887D01*
X161240113Y-120369083D01*
X161198120Y-120373200D01*
X160623235Y-120373200D01*
X160622307Y-120373194D01*
X160622300Y-120373193D01*
X160620251Y-120373179D01*
X160578319Y-120368476D01*
X160538100Y-120355717D01*
X160501124Y-120335390D01*
X160468801Y-120308267D01*
X160442362Y-120275383D01*
X160422813Y-120237990D01*
X160410899Y-120197512D01*
X160410896Y-120197476D01*
X160410893Y-120197467D01*
X160407073Y-120155493D01*
X160411478Y-120113576D01*
X160411482Y-120113562D01*
X160411486Y-120113527D01*
X160423963Y-120073219D01*
X160444032Y-120036102D01*
X160470928Y-120003591D01*
X160503627Y-119976922D01*
X160540883Y-119957113D01*
X160547799Y-119955025D01*
X160559663Y-119949522D01*
X160570441Y-119940132D01*
X160578176Y-119928111D01*
X160582256Y-119914411D01*
X160582259Y-119913883D01*
X161239032Y-119913883D01*
X161242916Y-119927640D01*
X161250479Y-119939770D01*
X161261122Y-119949313D01*
X161272936Y-119954998D01*
X161283290Y-119958283D01*
X161320266Y-119978610D01*
X161352589Y-120005733D01*
X161379028Y-120038617D01*
X161388777Y-120057264D01*
X161397015Y-120068734D01*
X161408259Y-120077561D01*
X161421517Y-120082907D01*
X161435739Y-120084347D01*
X161449799Y-120081768D01*
X161462584Y-120075374D01*
X161473081Y-120065671D01*
X161480460Y-120053428D01*
X161484495Y-120033588D01*
X161484495Y-119780456D01*
X161484489Y-119780412D01*
X163286895Y-119780412D01*
X163286895Y-120033544D01*
X163288906Y-120047697D01*
X163294781Y-120060728D01*
X163304053Y-120071608D01*
X163315989Y-120079473D01*
X163329644Y-120083702D01*
X163343937Y-120083959D01*
X163357735Y-120080224D01*
X163369946Y-120072793D01*
X163382293Y-120057813D01*
X163394032Y-120036102D01*
X163420928Y-120003591D01*
X163453627Y-119976922D01*
X163490883Y-119957113D01*
X163497799Y-119955025D01*
X163509663Y-119949522D01*
X163520441Y-119940132D01*
X163528176Y-119928111D01*
X163532256Y-119914411D01*
X163532358Y-119900117D01*
X163528474Y-119886360D01*
X163520911Y-119874230D01*
X163510268Y-119864687D01*
X163498454Y-119859002D01*
X163488100Y-119855717D01*
X163451124Y-119835390D01*
X163418801Y-119808267D01*
X163392362Y-119775383D01*
X163382613Y-119756736D01*
X163374375Y-119745266D01*
X163363131Y-119736439D01*
X163349873Y-119731093D01*
X163335651Y-119729653D01*
X163321591Y-119732232D01*
X163308806Y-119738626D01*
X163298309Y-119748329D01*
X163290930Y-119760572D01*
X163286895Y-119780412D01*
X161484489Y-119780412D01*
X161482484Y-119766303D01*
X161476609Y-119753272D01*
X161467337Y-119742392D01*
X161455401Y-119734527D01*
X161441746Y-119730298D01*
X161427453Y-119730041D01*
X161413655Y-119733776D01*
X161401444Y-119741207D01*
X161389097Y-119756187D01*
X161377358Y-119777898D01*
X161350462Y-119810409D01*
X161317763Y-119837078D01*
X161280507Y-119856887D01*
X161273591Y-119858975D01*
X161261727Y-119864478D01*
X161250949Y-119873868D01*
X161243214Y-119885889D01*
X161239134Y-119899589D01*
X161239032Y-119913883D01*
X160582259Y-119913883D01*
X160582358Y-119900117D01*
X160578474Y-119886360D01*
X160570911Y-119874230D01*
X160560268Y-119864687D01*
X160548454Y-119859002D01*
X160538100Y-119855717D01*
X160501124Y-119835390D01*
X160468801Y-119808267D01*
X160442362Y-119775383D01*
X160422813Y-119737990D01*
X160410899Y-119697512D01*
X160410896Y-119697476D01*
X160410893Y-119697467D01*
X160407073Y-119655493D01*
X160411478Y-119613576D01*
X160411482Y-119613562D01*
X160411486Y-119613527D01*
X160423963Y-119573219D01*
X160444032Y-119536102D01*
X160470928Y-119503591D01*
X160503627Y-119476922D01*
X160540883Y-119457113D01*
X160547799Y-119455025D01*
X160559663Y-119449522D01*
X160570441Y-119440132D01*
X160578176Y-119428111D01*
X160582256Y-119414411D01*
X160582259Y-119413883D01*
X161239032Y-119413883D01*
X161242916Y-119427640D01*
X161250479Y-119439770D01*
X161261122Y-119449313D01*
X161272936Y-119454998D01*
X161283290Y-119458283D01*
X161320266Y-119478610D01*
X161352589Y-119505733D01*
X161379028Y-119538617D01*
X161388777Y-119557264D01*
X161397015Y-119568734D01*
X161408259Y-119577561D01*
X161421517Y-119582907D01*
X161435739Y-119584347D01*
X161449799Y-119581768D01*
X161462584Y-119575374D01*
X161473081Y-119565671D01*
X161480460Y-119553428D01*
X161484495Y-119533588D01*
X161484495Y-119280456D01*
X161484489Y-119280412D01*
X163286895Y-119280412D01*
X163286895Y-119533544D01*
X163288906Y-119547697D01*
X163294781Y-119560728D01*
X163304053Y-119571608D01*
X163315989Y-119579473D01*
X163329644Y-119583702D01*
X163343937Y-119583959D01*
X163357735Y-119580224D01*
X163369946Y-119572793D01*
X163382293Y-119557813D01*
X163394032Y-119536102D01*
X163420928Y-119503591D01*
X163453627Y-119476922D01*
X163490883Y-119457113D01*
X163497799Y-119455025D01*
X163509663Y-119449522D01*
X163520441Y-119440132D01*
X163528176Y-119428111D01*
X163532256Y-119414411D01*
X163532358Y-119400117D01*
X163528474Y-119386360D01*
X163520911Y-119374230D01*
X163510268Y-119364687D01*
X163498454Y-119359002D01*
X163488100Y-119355717D01*
X163451124Y-119335390D01*
X163418801Y-119308267D01*
X163392362Y-119275383D01*
X163382613Y-119256736D01*
X163374375Y-119245266D01*
X163363131Y-119236439D01*
X163349873Y-119231093D01*
X163335651Y-119229653D01*
X163321591Y-119232232D01*
X163308806Y-119238626D01*
X163298309Y-119248329D01*
X163290930Y-119260572D01*
X163286895Y-119280412D01*
X161484489Y-119280412D01*
X161482484Y-119266303D01*
X161476609Y-119253272D01*
X161467337Y-119242392D01*
X161455401Y-119234527D01*
X161441746Y-119230298D01*
X161427453Y-119230041D01*
X161413655Y-119233776D01*
X161401444Y-119241207D01*
X161389097Y-119256187D01*
X161377358Y-119277898D01*
X161350462Y-119310409D01*
X161317763Y-119337078D01*
X161280507Y-119356887D01*
X161273591Y-119358975D01*
X161261727Y-119364478D01*
X161250949Y-119373868D01*
X161243214Y-119385889D01*
X161239134Y-119399589D01*
X161239032Y-119413883D01*
X160582259Y-119413883D01*
X160582358Y-119400117D01*
X160578474Y-119386360D01*
X160570911Y-119374230D01*
X160560268Y-119364687D01*
X160548454Y-119359002D01*
X160538100Y-119355717D01*
X160501124Y-119335390D01*
X160468801Y-119308267D01*
X160442362Y-119275383D01*
X160422813Y-119237990D01*
X160410899Y-119197512D01*
X160410896Y-119197476D01*
X160410893Y-119197467D01*
X160407073Y-119155493D01*
X160411478Y-119113576D01*
X160411482Y-119113562D01*
X160411486Y-119113527D01*
X160423963Y-119073219D01*
X160444032Y-119036102D01*
X160470928Y-119003591D01*
X160503627Y-118976922D01*
X160540883Y-118957113D01*
X160547799Y-118955025D01*
X160559663Y-118949522D01*
X160570441Y-118940132D01*
X160578176Y-118928111D01*
X160582256Y-118914411D01*
X160582259Y-118913883D01*
X161239032Y-118913883D01*
X161242916Y-118927640D01*
X161250479Y-118939770D01*
X161261122Y-118949313D01*
X161272936Y-118954998D01*
X161283290Y-118958283D01*
X161320266Y-118978610D01*
X161352589Y-119005733D01*
X161379028Y-119038617D01*
X161388777Y-119057264D01*
X161397015Y-119068734D01*
X161408259Y-119077561D01*
X161421517Y-119082907D01*
X161435739Y-119084347D01*
X161449799Y-119081768D01*
X161462584Y-119075374D01*
X161473081Y-119065671D01*
X161480460Y-119053428D01*
X161484495Y-119033588D01*
X161484495Y-118780456D01*
X161484489Y-118780412D01*
X163286895Y-118780412D01*
X163286895Y-119033544D01*
X163288906Y-119047697D01*
X163294781Y-119060728D01*
X163304053Y-119071608D01*
X163315989Y-119079473D01*
X163329644Y-119083702D01*
X163343937Y-119083959D01*
X163357735Y-119080224D01*
X163369946Y-119072793D01*
X163382293Y-119057813D01*
X163394032Y-119036102D01*
X163420928Y-119003591D01*
X163453627Y-118976922D01*
X163490883Y-118957113D01*
X163497799Y-118955025D01*
X163509663Y-118949522D01*
X163520441Y-118940132D01*
X163528176Y-118928111D01*
X163532256Y-118914411D01*
X163532358Y-118900117D01*
X163528474Y-118886360D01*
X163520911Y-118874230D01*
X163510268Y-118864687D01*
X163498454Y-118859002D01*
X163488100Y-118855717D01*
X163451124Y-118835390D01*
X163418801Y-118808267D01*
X163392362Y-118775383D01*
X163382613Y-118756736D01*
X163374375Y-118745266D01*
X163363131Y-118736439D01*
X163349873Y-118731093D01*
X163335651Y-118729653D01*
X163321591Y-118732232D01*
X163308806Y-118738626D01*
X163298309Y-118748329D01*
X163290930Y-118760572D01*
X163286895Y-118780412D01*
X161484489Y-118780412D01*
X161482484Y-118766303D01*
X161476609Y-118753272D01*
X161467337Y-118742392D01*
X161455401Y-118734527D01*
X161441746Y-118730298D01*
X161427453Y-118730041D01*
X161413655Y-118733776D01*
X161401444Y-118741207D01*
X161389097Y-118756187D01*
X161377358Y-118777898D01*
X161350462Y-118810409D01*
X161317763Y-118837078D01*
X161280507Y-118856887D01*
X161273591Y-118858975D01*
X161261727Y-118864478D01*
X161250949Y-118873868D01*
X161243214Y-118885889D01*
X161239134Y-118899589D01*
X161239032Y-118913883D01*
X160582259Y-118913883D01*
X160582358Y-118900117D01*
X160578474Y-118886360D01*
X160570911Y-118874230D01*
X160560268Y-118864687D01*
X160548454Y-118859002D01*
X160538100Y-118855717D01*
X160501124Y-118835390D01*
X160468801Y-118808267D01*
X160442362Y-118775383D01*
X160422813Y-118737990D01*
X160410899Y-118697512D01*
X160410896Y-118697476D01*
X160410893Y-118697467D01*
X160407073Y-118655493D01*
X160411478Y-118613576D01*
X160411482Y-118613562D01*
X160411486Y-118613527D01*
X160423963Y-118573219D01*
X160444032Y-118536102D01*
X160470928Y-118503591D01*
X160503627Y-118476922D01*
X160540883Y-118457113D01*
X160547799Y-118455025D01*
X160559663Y-118449522D01*
X160570441Y-118440132D01*
X160578176Y-118428111D01*
X160582256Y-118414411D01*
X160582259Y-118413883D01*
X161239032Y-118413883D01*
X161242916Y-118427640D01*
X161250479Y-118439770D01*
X161261122Y-118449313D01*
X161272936Y-118454998D01*
X161283290Y-118458283D01*
X161320266Y-118478610D01*
X161352589Y-118505733D01*
X161379028Y-118538617D01*
X161388777Y-118557264D01*
X161397015Y-118568734D01*
X161408259Y-118577561D01*
X161421517Y-118582907D01*
X161435739Y-118584347D01*
X161449799Y-118581768D01*
X161462584Y-118575374D01*
X161473081Y-118565671D01*
X161480460Y-118553428D01*
X161484495Y-118533588D01*
X161484495Y-118280456D01*
X161484489Y-118280412D01*
X163286895Y-118280412D01*
X163286895Y-118533544D01*
X163288906Y-118547697D01*
X163294781Y-118560728D01*
X163304053Y-118571608D01*
X163315989Y-118579473D01*
X163329644Y-118583702D01*
X163343937Y-118583959D01*
X163357735Y-118580224D01*
X163369946Y-118572793D01*
X163382293Y-118557813D01*
X163394032Y-118536102D01*
X163420928Y-118503591D01*
X163453627Y-118476922D01*
X163490883Y-118457113D01*
X163497799Y-118455025D01*
X163509663Y-118449522D01*
X163520441Y-118440132D01*
X163528176Y-118428111D01*
X163532256Y-118414411D01*
X163532358Y-118400117D01*
X163528474Y-118386360D01*
X163520911Y-118374230D01*
X163510268Y-118364687D01*
X163498454Y-118359002D01*
X163488100Y-118355717D01*
X163451124Y-118335390D01*
X163418801Y-118308267D01*
X163392362Y-118275383D01*
X163382613Y-118256736D01*
X163374375Y-118245266D01*
X163363131Y-118236439D01*
X163349873Y-118231093D01*
X163335651Y-118229653D01*
X163321591Y-118232232D01*
X163308806Y-118238626D01*
X163298309Y-118248329D01*
X163290930Y-118260572D01*
X163286895Y-118280412D01*
X161484489Y-118280412D01*
X161482484Y-118266303D01*
X161476609Y-118253272D01*
X161467337Y-118242392D01*
X161455401Y-118234527D01*
X161441746Y-118230298D01*
X161427453Y-118230041D01*
X161413655Y-118233776D01*
X161401444Y-118241207D01*
X161389097Y-118256187D01*
X161377358Y-118277898D01*
X161350462Y-118310409D01*
X161317763Y-118337078D01*
X161280507Y-118356887D01*
X161273591Y-118358975D01*
X161261727Y-118364478D01*
X161250949Y-118373868D01*
X161243214Y-118385889D01*
X161239134Y-118399589D01*
X161239032Y-118413883D01*
X160582259Y-118413883D01*
X160582358Y-118400117D01*
X160578474Y-118386360D01*
X160570911Y-118374230D01*
X160560268Y-118364687D01*
X160548454Y-118359002D01*
X160538100Y-118355717D01*
X160501124Y-118335390D01*
X160468801Y-118308267D01*
X160442362Y-118275383D01*
X160422813Y-118237990D01*
X160410899Y-118197512D01*
X160410896Y-118197476D01*
X160410893Y-118197467D01*
X160407073Y-118155493D01*
X160411478Y-118113576D01*
X160411482Y-118113562D01*
X160411486Y-118113527D01*
X160423963Y-118073219D01*
X160444032Y-118036102D01*
X160470928Y-118003591D01*
X160503627Y-117976922D01*
X160540883Y-117957113D01*
X160581277Y-117944917D01*
X160623270Y-117940800D01*
X161198155Y-117940800D01*
X161199083Y-117940806D01*
X161199090Y-117940807D01*
X161201139Y-117940821D01*
X161243071Y-117945524D01*
X161283290Y-117958283D01*
X161320266Y-117978610D01*
X161352589Y-118005733D01*
X161379028Y-118038617D01*
X161388777Y-118057264D01*
X161397015Y-118068734D01*
X161408259Y-118077561D01*
X161421517Y-118082907D01*
X161435739Y-118084347D01*
X161449799Y-118081768D01*
X161462584Y-118075374D01*
X161473081Y-118065671D01*
X161480460Y-118053428D01*
X161484495Y-118033588D01*
X161484495Y-117880800D01*
X161868695Y-117880800D01*
X161882848Y-117878789D01*
X161895879Y-117872914D01*
X161906759Y-117863642D01*
X161914624Y-117851706D01*
X161918853Y-117838051D01*
X161919495Y-117830000D01*
X161919495Y-117180800D01*
X162851895Y-117180800D01*
X162851895Y-117830000D01*
X162851895Y-117830000D01*
G37*
G36*
X156021800Y-118805400D02*
X154569400Y-118805400D01*
X154569400Y-117153000D01*
X156021800Y-117153000D01*
X156021800Y-118805400D01*
X156021800Y-118805400D01*
G37*
G36*
X158561800Y-118780000D02*
X157109400Y-118780000D01*
X157109400Y-117127600D01*
X158561800Y-117127600D01*
X158561800Y-118780000D01*
X158561800Y-118780000D01*
G37*
G36*
X174574600Y-118277600D02*
X173256200Y-118277600D01*
X173256200Y-117978650D01*
X173254189Y-117964497D01*
X173248314Y-117951466D01*
X173237369Y-117939171D01*
X172300860Y-117180800D01*
X172125652Y-117038920D01*
X172113390Y-117031578D01*
X172093685Y-117027600D01*
X170610766Y-117027600D01*
X170596613Y-117029611D01*
X170578800Y-117038919D01*
X169836814Y-117639767D01*
X169459430Y-117945367D01*
X169449698Y-117955837D01*
X169443267Y-117968603D01*
X169440600Y-117984846D01*
X169440600Y-118277600D01*
X168122200Y-118277600D01*
X168122200Y-115925200D01*
X174574600Y-115925200D01*
X174574600Y-118277600D01*
X174574600Y-118277600D01*
G37*
G36*
X152664583Y-115328549D02*
X152823293Y-115361128D01*
X152972666Y-115423918D01*
X153106990Y-115514522D01*
X153221159Y-115629490D01*
X153310821Y-115764443D01*
X153372565Y-115914244D01*
X153401754Y-116061660D01*
X153404036Y-116073187D01*
X153401452Y-116258251D01*
X153401374Y-116258594D01*
X153401374Y-116258598D01*
X153365555Y-116416255D01*
X153299655Y-116564269D01*
X153206257Y-116696668D01*
X153088921Y-116808406D01*
X152952117Y-116895225D01*
X152801057Y-116953817D01*
X152641494Y-116981953D01*
X152479501Y-116978559D01*
X152321253Y-116943766D01*
X152172777Y-116878898D01*
X152039733Y-116786430D01*
X151927180Y-116669878D01*
X151839408Y-116533682D01*
X151779760Y-116383029D01*
X151750513Y-116223672D01*
X151752774Y-116061660D01*
X151786462Y-115903172D01*
X151850290Y-115754249D01*
X151941831Y-115620558D01*
X152057593Y-115507195D01*
X152193173Y-115418474D01*
X152343402Y-115357777D01*
X152502555Y-115327418D01*
X152664583Y-115328549D01*
X152664583Y-115328549D01*
G37*
G36*
X165423600Y-116398200D02*
X163771200Y-116398200D01*
X163771200Y-114995800D01*
X165423600Y-114995800D01*
X165423600Y-116398200D01*
X165423600Y-116398200D01*
G37*
G36*
X162923600Y-116398200D02*
X161271200Y-116398200D01*
X161271200Y-114995800D01*
X162923600Y-114995800D01*
X162923600Y-116398200D01*
X162923600Y-116398200D01*
G37*
G36*
X155203600Y-114416600D02*
X153551200Y-114416600D01*
X153551200Y-112964200D01*
X155203600Y-112964200D01*
X155203600Y-114416600D01*
X155203600Y-114416600D01*
G37*
G36*
X157903600Y-114416600D02*
X156251200Y-114416600D01*
X156251200Y-112964200D01*
X157903600Y-112964200D01*
X157903600Y-114416600D01*
X157903600Y-114416600D01*
G37*
G36*
X171308183Y-112305949D02*
X171466893Y-112338528D01*
X171616266Y-112401318D01*
X171750590Y-112491922D01*
X171864759Y-112606890D01*
X171954421Y-112741843D01*
X172016165Y-112891644D01*
X172045354Y-113039060D01*
X172047636Y-113050587D01*
X172045052Y-113235651D01*
X172044974Y-113235994D01*
X172044974Y-113235998D01*
X172009155Y-113393655D01*
X171943255Y-113541669D01*
X171849857Y-113674068D01*
X171732521Y-113785806D01*
X171595717Y-113872625D01*
X171444657Y-113931217D01*
X171285094Y-113959353D01*
X171123101Y-113955959D01*
X170964853Y-113921166D01*
X170816377Y-113856298D01*
X170683333Y-113763830D01*
X170570780Y-113647278D01*
X170483008Y-113511082D01*
X170423360Y-113360429D01*
X170394113Y-113201072D01*
X170396374Y-113039060D01*
X170430062Y-112880572D01*
X170493890Y-112731649D01*
X170585431Y-112597958D01*
X170701193Y-112484595D01*
X170836773Y-112395874D01*
X170987002Y-112335177D01*
X171146155Y-112304818D01*
X171308183Y-112305949D01*
X171308183Y-112305949D01*
G37*
G36*
X166322000Y-113677600D02*
X164169600Y-113677600D01*
X164169600Y-111925200D01*
X166322000Y-111925200D01*
X166322000Y-113677600D01*
X166322000Y-113677600D01*
G37*
G36*
X162322000Y-113677600D02*
X160169600Y-113677600D01*
X160169600Y-111925200D01*
X162322000Y-111925200D01*
X162322000Y-113677600D01*
X162322000Y-113677600D01*
G37*
G36*
X155329000Y-111089600D02*
X153676600Y-111089600D01*
X153676600Y-109687200D01*
X155329000Y-109687200D01*
X155329000Y-111089600D01*
X155329000Y-111089600D01*
G37*
G36*
X157829000Y-111089600D02*
X156176600Y-111089600D01*
X156176600Y-109687200D01*
X157829000Y-109687200D01*
X157829000Y-111089600D01*
X157829000Y-111089600D01*
G37*
G36*
X162296600Y-110858200D02*
X160144200Y-110858200D01*
X160144200Y-109105800D01*
X162296600Y-109105800D01*
X162296600Y-110858200D01*
X162296600Y-110858200D01*
G37*
G36*
X166296600Y-110858200D02*
X164144200Y-110858200D01*
X164144200Y-109105800D01*
X166296600Y-109105800D01*
X166296600Y-110858200D01*
X166296600Y-110858200D01*
G37*
G36*
X158032200Y-108244800D02*
X156379800Y-108244800D01*
X156379800Y-106842400D01*
X158032200Y-106842400D01*
X158032200Y-108244800D01*
X158032200Y-108244800D01*
G37*
G36*
X155532200Y-108244800D02*
X153879800Y-108244800D01*
X153879800Y-106842400D01*
X155532200Y-106842400D01*
X155532200Y-108244800D01*
X155532200Y-108244800D01*
G37*
G36*
X152396545Y-103599581D02*
X152622491Y-103645962D01*
X152835140Y-103735351D01*
X153026369Y-103864337D01*
X153188903Y-104028009D01*
X153316549Y-104220133D01*
X153404449Y-104433393D01*
X153449183Y-104659318D01*
X153449183Y-104659329D01*
X153449250Y-104659668D01*
X153445571Y-104923130D01*
X153445495Y-104923464D01*
X153445495Y-104923477D01*
X153394469Y-105148066D01*
X153300651Y-105358785D01*
X153167687Y-105547273D01*
X153000646Y-105706345D01*
X152805890Y-105829941D01*
X152590832Y-105913356D01*
X152363676Y-105953410D01*
X152133059Y-105948579D01*
X151907774Y-105899047D01*
X151696400Y-105806700D01*
X151506993Y-105675059D01*
X151346759Y-105509132D01*
X151221806Y-105315242D01*
X151136890Y-105100769D01*
X151095252Y-104873901D01*
X151098472Y-104643257D01*
X151146431Y-104417630D01*
X151237298Y-104205619D01*
X151367617Y-104015293D01*
X151532420Y-103853906D01*
X151725434Y-103727602D01*
X151939304Y-103641192D01*
X152165880Y-103597971D01*
X152396545Y-103599581D01*
X152396545Y-103599581D01*
G37*
G36*
X174240545Y-103599581D02*
X174466491Y-103645962D01*
X174679140Y-103735351D01*
X174870369Y-103864337D01*
X175032903Y-104028009D01*
X175160549Y-104220133D01*
X175248449Y-104433393D01*
X175293183Y-104659318D01*
X175293183Y-104659329D01*
X175293250Y-104659668D01*
X175289571Y-104923130D01*
X175289495Y-104923464D01*
X175289495Y-104923477D01*
X175238469Y-105148066D01*
X175144651Y-105358785D01*
X175011687Y-105547273D01*
X174844646Y-105706345D01*
X174649890Y-105829941D01*
X174434832Y-105913356D01*
X174207676Y-105953410D01*
X173977059Y-105948579D01*
X173751774Y-105899047D01*
X173540400Y-105806700D01*
X173350993Y-105675059D01*
X173190759Y-105509132D01*
X173065806Y-105315242D01*
X172980890Y-105100769D01*
X172939252Y-104873901D01*
X172942472Y-104643257D01*
X172990431Y-104417630D01*
X173081298Y-104205619D01*
X173211617Y-104015293D01*
X173376420Y-103853906D01*
X173569434Y-103727602D01*
X173783304Y-103641192D01*
X174009880Y-103597971D01*
X174240545Y-103599581D01*
X174240545Y-103599581D01*
G37*
G36*
X162068370Y-103750617D02*
X162068375Y-103750619D01*
X162068417Y-103750623D01*
X162272045Y-103813656D01*
X162459550Y-103915040D01*
X162623793Y-104050914D01*
X162758517Y-104216101D01*
X162858589Y-104404310D01*
X162920199Y-104608372D01*
X162941000Y-104820515D01*
X162941000Y-104831085D01*
X162940894Y-104846334D01*
X162917133Y-105058166D01*
X162852680Y-105261348D01*
X162749989Y-105448142D01*
X162612972Y-105611432D01*
X162446849Y-105744999D01*
X162257945Y-105843755D01*
X162053458Y-105903939D01*
X162053417Y-105903943D01*
X162053413Y-105903944D01*
X161841177Y-105923259D01*
X161629230Y-105900983D01*
X161629225Y-105900981D01*
X161629183Y-105900977D01*
X161425555Y-105837944D01*
X161238050Y-105736560D01*
X161073807Y-105600686D01*
X160939083Y-105435499D01*
X160839011Y-105247290D01*
X160777401Y-105043228D01*
X160756600Y-104831085D01*
X160756600Y-104820515D01*
X160756706Y-104805266D01*
X160780467Y-104593434D01*
X160844920Y-104390252D01*
X160947611Y-104203458D01*
X161084628Y-104040168D01*
X161250751Y-103906601D01*
X161439655Y-103807845D01*
X161644142Y-103747661D01*
X161644183Y-103747657D01*
X161644187Y-103747656D01*
X161856423Y-103728341D01*
X162068370Y-103750617D01*
X162068370Y-103750617D01*
G37*
G36*
X165481000Y-105918000D02*
X163296600Y-105918000D01*
X163296600Y-103733600D01*
X165481000Y-103733600D01*
X165481000Y-105918000D01*
X165481000Y-105918000D01*
G37*
M02*
