G04 #@! TF.FileFunction,Copper,L1,Top,Signal*
%FSLAX46Y46*%
G04 Gerber Fmt 4.6, Leading zero omitted, Abs format (unit mm)*
G04 Created by KiCad (PCBNEW 4.0.5) date Sunday, February 19, 2017 'PMt' 07:14:27 PM*
%MOMM*%
%LPD*%
G01*
G04 APERTURE LIST*
%ADD10C,0.100000*%
%ADD11R,1.500000X1.250000*%
%ADD12R,6.300000X0.950000*%
%ADD13R,1.166000X2.200000*%
%ADD14R,2.032000X2.032000*%
%ADD15O,2.032000X2.032000*%
%ADD16R,1.500000X1.300000*%
%ADD17R,1.300000X1.500000*%
%ADD18C,0.400000*%
%ADD19O,0.850000X0.280000*%
%ADD20R,0.280000X3.800000*%
%ADD21R,1.650000X2.400000*%
%ADD22R,2.000000X1.600000*%
%ADD23R,3.500120X1.800860*%
%ADD24R,1.198880X1.198880*%
%ADD25C,1.500000*%
%ADD26C,0.600000*%
%ADD27C,0.250000*%
%ADD28C,0.152400*%
G04 APERTURE END LIST*
D10*
D11*
X164597400Y-115697000D03*
X162097400Y-115697000D03*
X154706000Y-107543600D03*
X157206000Y-107543600D03*
X154502800Y-110388400D03*
X157002800Y-110388400D03*
D10*
G36*
X172694772Y-116114973D02*
X174171349Y-117310681D01*
X173542028Y-118087827D01*
X172065451Y-116892119D01*
X172694772Y-116114973D01*
X172694772Y-116114973D01*
G37*
G36*
X170651349Y-116882119D02*
X169174772Y-118077827D01*
X168545451Y-117300681D01*
X170022028Y-116104973D01*
X170651349Y-116882119D01*
X170651349Y-116882119D01*
G37*
G36*
X174171349Y-120992119D02*
X172694772Y-122187827D01*
X172065451Y-121410681D01*
X173542028Y-120214973D01*
X174171349Y-120992119D01*
X174171349Y-120992119D01*
G37*
D12*
X171348400Y-116476400D03*
X171348400Y-121826400D03*
D13*
X168781400Y-121201400D03*
X168781400Y-117101400D03*
X173915400Y-121201400D03*
X173915400Y-117101400D03*
D10*
G36*
X169164772Y-120214973D02*
X170641349Y-121410681D01*
X170012028Y-122187827D01*
X168535451Y-120992119D01*
X169164772Y-120214973D01*
X169164772Y-120214973D01*
G37*
D14*
X164388800Y-104825800D03*
D15*
X161848800Y-104825800D03*
D14*
X164566600Y-136804400D03*
D15*
X162026600Y-136804400D03*
D16*
X157077400Y-113690400D03*
X154377400Y-113690400D03*
D17*
X155295600Y-120679200D03*
X155295600Y-117979200D03*
X157835600Y-117953800D03*
X157835600Y-120653800D03*
D18*
X161885695Y-118407000D03*
X162885695Y-118407000D03*
X161885695Y-119907000D03*
X162885695Y-119907000D03*
D19*
X163860695Y-118157000D03*
X163860695Y-118657000D03*
X163860695Y-120157000D03*
X163860695Y-119657000D03*
X160910695Y-118157000D03*
X160910695Y-118657000D03*
X160910695Y-120157000D03*
X160910695Y-119657000D03*
X160910695Y-119157000D03*
D20*
X162135695Y-119157000D03*
D21*
X162385695Y-119157000D03*
D20*
X162635695Y-119157000D03*
D19*
X163860695Y-119157000D03*
D18*
X162385695Y-119157000D03*
D22*
X165220400Y-109982000D03*
X161220400Y-109982000D03*
X165245800Y-112801400D03*
X161245800Y-112801400D03*
X165296600Y-128955800D03*
X161296600Y-128955800D03*
D23*
X166359840Y-125349000D03*
X171358560Y-125349000D03*
D24*
X169044620Y-133502400D03*
X166946580Y-133502400D03*
D16*
X164468800Y-133527800D03*
X161768800Y-133527800D03*
D25*
X171221400Y-113131600D03*
X152577800Y-116154200D03*
X174548800Y-130454400D03*
D26*
X164566600Y-117500400D03*
X153238200Y-108661200D03*
X159994600Y-119234400D03*
X163703000Y-117297200D03*
D27*
X164566600Y-117500400D02*
X164517295Y-117500400D01*
X164517295Y-117500400D02*
X163860695Y-118157000D01*
X154706000Y-107543600D02*
X154355800Y-107543600D01*
X154355800Y-107543600D02*
X153238200Y-108661200D01*
X154706000Y-107543600D02*
X154584400Y-107543600D01*
X154377400Y-113690400D02*
X154377400Y-110513800D01*
X154377400Y-110513800D02*
X154502800Y-110388400D01*
X157955400Y-115468400D02*
X157955400Y-115486705D01*
X157955400Y-115486705D02*
X160625695Y-118157000D01*
X160625695Y-118157000D02*
X160910695Y-118157000D01*
X157077400Y-113690400D02*
X157077400Y-114590400D01*
X157077400Y-114590400D02*
X157955400Y-115468400D01*
X163703000Y-117297200D02*
X163703000Y-116743800D01*
X160072000Y-119157000D02*
X159994600Y-119234400D01*
X160910695Y-119157000D02*
X160072000Y-119157000D01*
X163703000Y-116743800D02*
X164597400Y-115697000D01*
X173118400Y-117101400D02*
X173915400Y-117101400D01*
X168781400Y-117101400D02*
X169588400Y-117101400D01*
X169588400Y-117101400D02*
X170213400Y-116476400D01*
X170213400Y-116476400D02*
X172493400Y-116476400D01*
X172493400Y-116476400D02*
X173118400Y-117101400D01*
X163860695Y-118657000D02*
X163860695Y-119157000D01*
X168781400Y-117101400D02*
X167948400Y-117101400D01*
X164535695Y-118657000D02*
X163860695Y-118657000D01*
X167948400Y-117101400D02*
X166392800Y-118657000D01*
X166392800Y-118657000D02*
X164535695Y-118657000D01*
X174548800Y-130454400D02*
X172092620Y-130454400D01*
X172092620Y-130454400D02*
X169044620Y-133502400D01*
X155295600Y-120679200D02*
X155295600Y-137541000D01*
X155295600Y-137541000D02*
X156159200Y-138404600D01*
X156159200Y-138404600D02*
X164232400Y-138404600D01*
X164232400Y-138404600D02*
X164566600Y-138070400D01*
X164566600Y-138070400D02*
X164566600Y-136804400D01*
X157835600Y-117953800D02*
X159609800Y-117953800D01*
X160313000Y-118657000D02*
X160910695Y-118657000D01*
X159609800Y-117953800D02*
X160313000Y-118657000D01*
X152577800Y-116154200D02*
X155295600Y-116611400D01*
X155295600Y-116611400D02*
X155295600Y-117979200D01*
X157835600Y-117953800D02*
X154787600Y-117953800D01*
X166946580Y-133502400D02*
X164494200Y-133502400D01*
X164494200Y-133502400D02*
X164468800Y-133527800D01*
X173915400Y-121201400D02*
X173118400Y-121201400D01*
X173118400Y-121201400D02*
X172493400Y-121826400D01*
X172493400Y-121826400D02*
X171348400Y-121826400D01*
X168781400Y-121201400D02*
X169588400Y-121201400D01*
X169588400Y-121201400D02*
X170213400Y-121826400D01*
X170213400Y-121826400D02*
X171348400Y-121826400D01*
D28*
G36*
X163051229Y-103099212D02*
X163051554Y-103791087D01*
X162639714Y-103434709D01*
X162273187Y-103282901D01*
X162026600Y-103382561D01*
X162026600Y-104648000D01*
X162046600Y-104648000D01*
X162046600Y-105003600D01*
X162026600Y-105003600D01*
X162026600Y-106269039D01*
X162273187Y-106368699D01*
X162639714Y-106216891D01*
X163052524Y-105859673D01*
X163058584Y-118771529D01*
X162913067Y-118771049D01*
X162527116Y-119157000D01*
X162913067Y-119542951D01*
X163058945Y-119542470D01*
X163066494Y-135628760D01*
X162817514Y-135413309D01*
X162450987Y-135261501D01*
X162204400Y-135361161D01*
X162204400Y-136626600D01*
X162224400Y-136626600D01*
X162224400Y-136982200D01*
X162204400Y-136982200D01*
X162204400Y-137002200D01*
X161848800Y-137002200D01*
X161848800Y-136982200D01*
X160582346Y-136982200D01*
X160483689Y-137228789D01*
X160763543Y-137786931D01*
X161068708Y-138051000D01*
X156795229Y-138051000D01*
X156797419Y-136380011D01*
X160483689Y-136380011D01*
X160582346Y-136626600D01*
X161848800Y-136626600D01*
X161848800Y-135361161D01*
X161602213Y-135261501D01*
X161235686Y-135413309D01*
X160763543Y-135821869D01*
X160483689Y-136380011D01*
X156797419Y-136380011D01*
X156819500Y-119532800D01*
X159559900Y-119547147D01*
X159694781Y-119682264D01*
X159888994Y-119762908D01*
X160099284Y-119763092D01*
X160289801Y-119684372D01*
X161999744Y-119684372D01*
X162000315Y-119857560D01*
X162297743Y-119951711D01*
X162608560Y-119924875D01*
X162771075Y-119857560D01*
X162771646Y-119684372D01*
X162385695Y-119298421D01*
X161999744Y-119684372D01*
X160289801Y-119684372D01*
X160293637Y-119682787D01*
X160424976Y-119551676D01*
X161594401Y-119557799D01*
X161624078Y-119551951D01*
X161649142Y-119535017D01*
X161665643Y-119509667D01*
X161667517Y-119499847D01*
X161685135Y-119542380D01*
X161858323Y-119542951D01*
X162244274Y-119157000D01*
X161858323Y-118771049D01*
X161685135Y-118771620D01*
X161671000Y-118816273D01*
X161671000Y-118629628D01*
X161999744Y-118629628D01*
X162385695Y-119015579D01*
X162771646Y-118629628D01*
X162771075Y-118456440D01*
X162473647Y-118362289D01*
X162162830Y-118389125D01*
X162000315Y-118456440D01*
X161999744Y-118629628D01*
X161671000Y-118629628D01*
X161671000Y-116713000D01*
X161664997Y-116683354D01*
X161647932Y-116658379D01*
X161622495Y-116642011D01*
X161594800Y-116636800D01*
X160145910Y-116636800D01*
X160120785Y-114892876D01*
X160114355Y-114863320D01*
X160096933Y-114838594D01*
X160071263Y-114822594D01*
X160044755Y-114817774D01*
X159044804Y-114815649D01*
X159054800Y-111811054D01*
X159048895Y-111781388D01*
X159031913Y-111756356D01*
X159006531Y-111739904D01*
X158978643Y-111734600D01*
X155956000Y-111732910D01*
X155956000Y-111522795D01*
X156136595Y-111597600D01*
X156678950Y-111597600D01*
X156825000Y-111451550D01*
X156825000Y-110566200D01*
X157180600Y-110566200D01*
X157180600Y-111451550D01*
X157326650Y-111597600D01*
X157869005Y-111597600D01*
X158083723Y-111508661D01*
X158248061Y-111344322D01*
X158337000Y-111129604D01*
X158337000Y-110712250D01*
X158190950Y-110566200D01*
X157180600Y-110566200D01*
X156825000Y-110566200D01*
X156805000Y-110566200D01*
X156805000Y-110210600D01*
X156825000Y-110210600D01*
X156825000Y-109325250D01*
X157180600Y-109325250D01*
X157180600Y-110210600D01*
X158190950Y-110210600D01*
X158337000Y-110064550D01*
X158337000Y-109647196D01*
X158248061Y-109432478D01*
X158083723Y-109268139D01*
X157869005Y-109179200D01*
X157326650Y-109179200D01*
X157180600Y-109325250D01*
X156825000Y-109325250D01*
X156678950Y-109179200D01*
X156136595Y-109179200D01*
X155956000Y-109254005D01*
X155956000Y-108488081D01*
X155960739Y-108499522D01*
X156125077Y-108663861D01*
X156339795Y-108752800D01*
X156882150Y-108752800D01*
X157028200Y-108606750D01*
X157028200Y-107721400D01*
X157383800Y-107721400D01*
X157383800Y-108606750D01*
X157529850Y-108752800D01*
X158072205Y-108752800D01*
X158286923Y-108663861D01*
X158451261Y-108499522D01*
X158540200Y-108284804D01*
X158540200Y-107867450D01*
X158394150Y-107721400D01*
X157383800Y-107721400D01*
X157028200Y-107721400D01*
X157008200Y-107721400D01*
X157008200Y-107365800D01*
X157028200Y-107365800D01*
X157028200Y-106480450D01*
X157383800Y-106480450D01*
X157383800Y-107365800D01*
X158394150Y-107365800D01*
X158540200Y-107219750D01*
X158540200Y-106802396D01*
X158451261Y-106587678D01*
X158286923Y-106423339D01*
X158072205Y-106334400D01*
X157529850Y-106334400D01*
X157383800Y-106480450D01*
X157028200Y-106480450D01*
X156882150Y-106334400D01*
X156339795Y-106334400D01*
X156125077Y-106423339D01*
X155960739Y-106587678D01*
X155956000Y-106599119D01*
X155956000Y-105250189D01*
X160305889Y-105250189D01*
X160585743Y-105808331D01*
X161057886Y-106216891D01*
X161424413Y-106368699D01*
X161671000Y-106269039D01*
X161671000Y-105003600D01*
X160404546Y-105003600D01*
X160305889Y-105250189D01*
X155956000Y-105250189D01*
X155956000Y-104401411D01*
X160305889Y-104401411D01*
X160404546Y-104648000D01*
X161671000Y-104648000D01*
X161671000Y-103382561D01*
X161424413Y-103282901D01*
X161057886Y-103434709D01*
X160585743Y-103843269D01*
X160305889Y-104401411D01*
X155956000Y-104401411D01*
X155956000Y-103073476D01*
X163051229Y-103099212D01*
X163051229Y-103099212D01*
G37*
X163051229Y-103099212D02*
X163051554Y-103791087D01*
X162639714Y-103434709D01*
X162273187Y-103282901D01*
X162026600Y-103382561D01*
X162026600Y-104648000D01*
X162046600Y-104648000D01*
X162046600Y-105003600D01*
X162026600Y-105003600D01*
X162026600Y-106269039D01*
X162273187Y-106368699D01*
X162639714Y-106216891D01*
X163052524Y-105859673D01*
X163058584Y-118771529D01*
X162913067Y-118771049D01*
X162527116Y-119157000D01*
X162913067Y-119542951D01*
X163058945Y-119542470D01*
X163066494Y-135628760D01*
X162817514Y-135413309D01*
X162450987Y-135261501D01*
X162204400Y-135361161D01*
X162204400Y-136626600D01*
X162224400Y-136626600D01*
X162224400Y-136982200D01*
X162204400Y-136982200D01*
X162204400Y-137002200D01*
X161848800Y-137002200D01*
X161848800Y-136982200D01*
X160582346Y-136982200D01*
X160483689Y-137228789D01*
X160763543Y-137786931D01*
X161068708Y-138051000D01*
X156795229Y-138051000D01*
X156797419Y-136380011D01*
X160483689Y-136380011D01*
X160582346Y-136626600D01*
X161848800Y-136626600D01*
X161848800Y-135361161D01*
X161602213Y-135261501D01*
X161235686Y-135413309D01*
X160763543Y-135821869D01*
X160483689Y-136380011D01*
X156797419Y-136380011D01*
X156819500Y-119532800D01*
X159559900Y-119547147D01*
X159694781Y-119682264D01*
X159888994Y-119762908D01*
X160099284Y-119763092D01*
X160289801Y-119684372D01*
X161999744Y-119684372D01*
X162000315Y-119857560D01*
X162297743Y-119951711D01*
X162608560Y-119924875D01*
X162771075Y-119857560D01*
X162771646Y-119684372D01*
X162385695Y-119298421D01*
X161999744Y-119684372D01*
X160289801Y-119684372D01*
X160293637Y-119682787D01*
X160424976Y-119551676D01*
X161594401Y-119557799D01*
X161624078Y-119551951D01*
X161649142Y-119535017D01*
X161665643Y-119509667D01*
X161667517Y-119499847D01*
X161685135Y-119542380D01*
X161858323Y-119542951D01*
X162244274Y-119157000D01*
X161858323Y-118771049D01*
X161685135Y-118771620D01*
X161671000Y-118816273D01*
X161671000Y-118629628D01*
X161999744Y-118629628D01*
X162385695Y-119015579D01*
X162771646Y-118629628D01*
X162771075Y-118456440D01*
X162473647Y-118362289D01*
X162162830Y-118389125D01*
X162000315Y-118456440D01*
X161999744Y-118629628D01*
X161671000Y-118629628D01*
X161671000Y-116713000D01*
X161664997Y-116683354D01*
X161647932Y-116658379D01*
X161622495Y-116642011D01*
X161594800Y-116636800D01*
X160145910Y-116636800D01*
X160120785Y-114892876D01*
X160114355Y-114863320D01*
X160096933Y-114838594D01*
X160071263Y-114822594D01*
X160044755Y-114817774D01*
X159044804Y-114815649D01*
X159054800Y-111811054D01*
X159048895Y-111781388D01*
X159031913Y-111756356D01*
X159006531Y-111739904D01*
X158978643Y-111734600D01*
X155956000Y-111732910D01*
X155956000Y-111522795D01*
X156136595Y-111597600D01*
X156678950Y-111597600D01*
X156825000Y-111451550D01*
X156825000Y-110566200D01*
X157180600Y-110566200D01*
X157180600Y-111451550D01*
X157326650Y-111597600D01*
X157869005Y-111597600D01*
X158083723Y-111508661D01*
X158248061Y-111344322D01*
X158337000Y-111129604D01*
X158337000Y-110712250D01*
X158190950Y-110566200D01*
X157180600Y-110566200D01*
X156825000Y-110566200D01*
X156805000Y-110566200D01*
X156805000Y-110210600D01*
X156825000Y-110210600D01*
X156825000Y-109325250D01*
X157180600Y-109325250D01*
X157180600Y-110210600D01*
X158190950Y-110210600D01*
X158337000Y-110064550D01*
X158337000Y-109647196D01*
X158248061Y-109432478D01*
X158083723Y-109268139D01*
X157869005Y-109179200D01*
X157326650Y-109179200D01*
X157180600Y-109325250D01*
X156825000Y-109325250D01*
X156678950Y-109179200D01*
X156136595Y-109179200D01*
X155956000Y-109254005D01*
X155956000Y-108488081D01*
X155960739Y-108499522D01*
X156125077Y-108663861D01*
X156339795Y-108752800D01*
X156882150Y-108752800D01*
X157028200Y-108606750D01*
X157028200Y-107721400D01*
X157383800Y-107721400D01*
X157383800Y-108606750D01*
X157529850Y-108752800D01*
X158072205Y-108752800D01*
X158286923Y-108663861D01*
X158451261Y-108499522D01*
X158540200Y-108284804D01*
X158540200Y-107867450D01*
X158394150Y-107721400D01*
X157383800Y-107721400D01*
X157028200Y-107721400D01*
X157008200Y-107721400D01*
X157008200Y-107365800D01*
X157028200Y-107365800D01*
X157028200Y-106480450D01*
X157383800Y-106480450D01*
X157383800Y-107365800D01*
X158394150Y-107365800D01*
X158540200Y-107219750D01*
X158540200Y-106802396D01*
X158451261Y-106587678D01*
X158286923Y-106423339D01*
X158072205Y-106334400D01*
X157529850Y-106334400D01*
X157383800Y-106480450D01*
X157028200Y-106480450D01*
X156882150Y-106334400D01*
X156339795Y-106334400D01*
X156125077Y-106423339D01*
X155960739Y-106587678D01*
X155956000Y-106599119D01*
X155956000Y-105250189D01*
X160305889Y-105250189D01*
X160585743Y-105808331D01*
X161057886Y-106216891D01*
X161424413Y-106368699D01*
X161671000Y-106269039D01*
X161671000Y-105003600D01*
X160404546Y-105003600D01*
X160305889Y-105250189D01*
X155956000Y-105250189D01*
X155956000Y-104401411D01*
X160305889Y-104401411D01*
X160404546Y-104648000D01*
X161671000Y-104648000D01*
X161671000Y-103382561D01*
X161424413Y-103282901D01*
X161057886Y-103434709D01*
X160585743Y-103843269D01*
X160305889Y-104401411D01*
X155956000Y-104401411D01*
X155956000Y-103073476D01*
X163051229Y-103099212D01*
G36*
X168884600Y-127939800D02*
X168890603Y-127969446D01*
X168907668Y-127994421D01*
X168933105Y-128010789D01*
X168960800Y-128016000D01*
X172897800Y-128016000D01*
X172897800Y-135611230D01*
X172737324Y-135771426D01*
X172534631Y-136259566D01*
X172534170Y-136788115D01*
X172736011Y-137276608D01*
X172897800Y-137438680D01*
X172897800Y-138582603D01*
X163525200Y-138607596D01*
X163525200Y-138404600D01*
X164242750Y-138404600D01*
X164388800Y-138258550D01*
X164388800Y-136982200D01*
X164744400Y-136982200D01*
X164744400Y-138258550D01*
X164890450Y-138404600D01*
X165698804Y-138404600D01*
X165913522Y-138315661D01*
X166077861Y-138151323D01*
X166166800Y-137936605D01*
X166166800Y-137128250D01*
X166020750Y-136982200D01*
X164744400Y-136982200D01*
X164388800Y-136982200D01*
X164368800Y-136982200D01*
X164368800Y-136626600D01*
X164388800Y-136626600D01*
X164388800Y-135350250D01*
X164744400Y-135350250D01*
X164744400Y-136626600D01*
X166020750Y-136626600D01*
X166166800Y-136480550D01*
X166166800Y-135672195D01*
X166077861Y-135457477D01*
X165913522Y-135293139D01*
X165698804Y-135204200D01*
X164890450Y-135204200D01*
X164744400Y-135350250D01*
X164388800Y-135350250D01*
X164242750Y-135204200D01*
X163525200Y-135204200D01*
X163525200Y-134299093D01*
X163551728Y-134340318D01*
X163628120Y-134392515D01*
X163718800Y-134410878D01*
X165218800Y-134410878D01*
X165303514Y-134394938D01*
X165381318Y-134344872D01*
X165433515Y-134268480D01*
X165451878Y-134177800D01*
X165451878Y-133856000D01*
X166114062Y-133856000D01*
X166114062Y-134101840D01*
X166130002Y-134186554D01*
X166180068Y-134264358D01*
X166256460Y-134316555D01*
X166347140Y-134334918D01*
X167546020Y-134334918D01*
X167630734Y-134318978D01*
X167708538Y-134268912D01*
X167760735Y-134192520D01*
X167779098Y-134101840D01*
X167779098Y-132902960D01*
X167763158Y-132818246D01*
X167713092Y-132740442D01*
X167636700Y-132688245D01*
X167546020Y-132669882D01*
X166347140Y-132669882D01*
X166262426Y-132685822D01*
X166184622Y-132735888D01*
X166132425Y-132812280D01*
X166114062Y-132902960D01*
X166114062Y-133148800D01*
X165451878Y-133148800D01*
X165451878Y-132877800D01*
X165435938Y-132793086D01*
X165385872Y-132715282D01*
X165309480Y-132663085D01*
X165218800Y-132644722D01*
X163718800Y-132644722D01*
X163634086Y-132660662D01*
X163556282Y-132710728D01*
X163525200Y-132756218D01*
X163525200Y-123088400D01*
X168884600Y-123088400D01*
X168884600Y-127939800D01*
X168884600Y-127939800D01*
G37*
X168884600Y-127939800D02*
X168890603Y-127969446D01*
X168907668Y-127994421D01*
X168933105Y-128010789D01*
X168960800Y-128016000D01*
X172897800Y-128016000D01*
X172897800Y-135611230D01*
X172737324Y-135771426D01*
X172534631Y-136259566D01*
X172534170Y-136788115D01*
X172736011Y-137276608D01*
X172897800Y-137438680D01*
X172897800Y-138582603D01*
X163525200Y-138607596D01*
X163525200Y-138404600D01*
X164242750Y-138404600D01*
X164388800Y-138258550D01*
X164388800Y-136982200D01*
X164744400Y-136982200D01*
X164744400Y-138258550D01*
X164890450Y-138404600D01*
X165698804Y-138404600D01*
X165913522Y-138315661D01*
X166077861Y-138151323D01*
X166166800Y-137936605D01*
X166166800Y-137128250D01*
X166020750Y-136982200D01*
X164744400Y-136982200D01*
X164388800Y-136982200D01*
X164368800Y-136982200D01*
X164368800Y-136626600D01*
X164388800Y-136626600D01*
X164388800Y-135350250D01*
X164744400Y-135350250D01*
X164744400Y-136626600D01*
X166020750Y-136626600D01*
X166166800Y-136480550D01*
X166166800Y-135672195D01*
X166077861Y-135457477D01*
X165913522Y-135293139D01*
X165698804Y-135204200D01*
X164890450Y-135204200D01*
X164744400Y-135350250D01*
X164388800Y-135350250D01*
X164242750Y-135204200D01*
X163525200Y-135204200D01*
X163525200Y-134299093D01*
X163551728Y-134340318D01*
X163628120Y-134392515D01*
X163718800Y-134410878D01*
X165218800Y-134410878D01*
X165303514Y-134394938D01*
X165381318Y-134344872D01*
X165433515Y-134268480D01*
X165451878Y-134177800D01*
X165451878Y-133856000D01*
X166114062Y-133856000D01*
X166114062Y-134101840D01*
X166130002Y-134186554D01*
X166180068Y-134264358D01*
X166256460Y-134316555D01*
X166347140Y-134334918D01*
X167546020Y-134334918D01*
X167630734Y-134318978D01*
X167708538Y-134268912D01*
X167760735Y-134192520D01*
X167779098Y-134101840D01*
X167779098Y-132902960D01*
X167763158Y-132818246D01*
X167713092Y-132740442D01*
X167636700Y-132688245D01*
X167546020Y-132669882D01*
X166347140Y-132669882D01*
X166262426Y-132685822D01*
X166184622Y-132735888D01*
X166132425Y-132812280D01*
X166114062Y-132902960D01*
X166114062Y-133148800D01*
X165451878Y-133148800D01*
X165451878Y-132877800D01*
X165435938Y-132793086D01*
X165385872Y-132715282D01*
X165309480Y-132663085D01*
X165218800Y-132644722D01*
X163718800Y-132644722D01*
X163634086Y-132660662D01*
X163556282Y-132710728D01*
X163525200Y-132756218D01*
X163525200Y-123088400D01*
X168884600Y-123088400D01*
X168884600Y-127939800D01*
G36*
X174675800Y-126771400D02*
X169240200Y-126771400D01*
X169240200Y-122834400D01*
X169234197Y-122804754D01*
X169217132Y-122779779D01*
X169191695Y-122763411D01*
X169163663Y-122758201D01*
X163499450Y-122783264D01*
X163484904Y-119607348D01*
X164948251Y-119583200D01*
X174675800Y-119583200D01*
X174675800Y-126771400D01*
X174675800Y-126771400D01*
G37*
X174675800Y-126771400D02*
X169240200Y-126771400D01*
X169240200Y-122834400D01*
X169234197Y-122804754D01*
X169217132Y-122779779D01*
X169191695Y-122763411D01*
X169163663Y-122758201D01*
X163499450Y-122783264D01*
X163484904Y-119607348D01*
X164948251Y-119583200D01*
X174675800Y-119583200D01*
X174675800Y-126771400D01*
G36*
X174675800Y-103568447D02*
X174382434Y-103446631D01*
X173853885Y-103446170D01*
X173365392Y-103648011D01*
X172991324Y-104021426D01*
X172788631Y-104509566D01*
X172788170Y-105038115D01*
X172990011Y-105526608D01*
X173363426Y-105900676D01*
X173851566Y-106103369D01*
X174380115Y-106103830D01*
X174675800Y-105981656D01*
X174675800Y-119227600D01*
X163443773Y-119227600D01*
X163443773Y-118501906D01*
X163562890Y-118525600D01*
X164158500Y-118525600D01*
X164299557Y-118497542D01*
X164347362Y-118465600D01*
X164998400Y-118465600D01*
X165028046Y-118459597D01*
X165053021Y-118442532D01*
X165069389Y-118417095D01*
X165074600Y-118389400D01*
X165074600Y-117655395D01*
X165095108Y-117606006D01*
X165095292Y-117395716D01*
X165074600Y-117345638D01*
X165074600Y-117017800D01*
X165068597Y-116988154D01*
X165051532Y-116963179D01*
X165026095Y-116946811D01*
X164998552Y-116941600D01*
X163398200Y-116938414D01*
X163398200Y-114106701D01*
X170497746Y-114106701D01*
X170572515Y-114327204D01*
X171079446Y-114484512D01*
X171607989Y-114435851D01*
X171870285Y-114327204D01*
X171945054Y-114106701D01*
X171221400Y-113383047D01*
X170497746Y-114106701D01*
X163398200Y-114106701D01*
X163398200Y-112989646D01*
X169868488Y-112989646D01*
X169917149Y-113518189D01*
X170025796Y-113780485D01*
X170246299Y-113855254D01*
X170969953Y-113131600D01*
X171472847Y-113131600D01*
X172196501Y-113855254D01*
X172417004Y-113780485D01*
X172574312Y-113273554D01*
X172525651Y-112745011D01*
X172417004Y-112482715D01*
X172196501Y-112407946D01*
X171472847Y-113131600D01*
X170969953Y-113131600D01*
X170246299Y-112407946D01*
X170025796Y-112482715D01*
X169868488Y-112989646D01*
X163398200Y-112989646D01*
X163398200Y-112156499D01*
X170497746Y-112156499D01*
X171221400Y-112880153D01*
X171945054Y-112156499D01*
X171870285Y-111935996D01*
X171363354Y-111778688D01*
X170834811Y-111827349D01*
X170572515Y-111935996D01*
X170497746Y-112156499D01*
X163398200Y-112156499D01*
X163398200Y-106426000D01*
X164064950Y-106426000D01*
X164211000Y-106279950D01*
X164211000Y-105003600D01*
X164566600Y-105003600D01*
X164566600Y-106279950D01*
X164712650Y-106426000D01*
X165521004Y-106426000D01*
X165735722Y-106337061D01*
X165900061Y-106172723D01*
X165989000Y-105958005D01*
X165989000Y-105149650D01*
X165842950Y-105003600D01*
X164566600Y-105003600D01*
X164211000Y-105003600D01*
X164191000Y-105003600D01*
X164191000Y-104648000D01*
X164211000Y-104648000D01*
X164211000Y-103371650D01*
X164566600Y-103371650D01*
X164566600Y-104648000D01*
X165842950Y-104648000D01*
X165989000Y-104501950D01*
X165989000Y-103693595D01*
X165900061Y-103478877D01*
X165735722Y-103314539D01*
X165521004Y-103225600D01*
X164712650Y-103225600D01*
X164566600Y-103371650D01*
X164211000Y-103371650D01*
X164064950Y-103225600D01*
X163398200Y-103225600D01*
X163398200Y-103072000D01*
X174675800Y-103072000D01*
X174675800Y-103568447D01*
X174675800Y-103568447D01*
G37*
X174675800Y-103568447D02*
X174382434Y-103446631D01*
X173853885Y-103446170D01*
X173365392Y-103648011D01*
X172991324Y-104021426D01*
X172788631Y-104509566D01*
X172788170Y-105038115D01*
X172990011Y-105526608D01*
X173363426Y-105900676D01*
X173851566Y-106103369D01*
X174380115Y-106103830D01*
X174675800Y-105981656D01*
X174675800Y-119227600D01*
X163443773Y-119227600D01*
X163443773Y-118501906D01*
X163562890Y-118525600D01*
X164158500Y-118525600D01*
X164299557Y-118497542D01*
X164347362Y-118465600D01*
X164998400Y-118465600D01*
X165028046Y-118459597D01*
X165053021Y-118442532D01*
X165069389Y-118417095D01*
X165074600Y-118389400D01*
X165074600Y-117655395D01*
X165095108Y-117606006D01*
X165095292Y-117395716D01*
X165074600Y-117345638D01*
X165074600Y-117017800D01*
X165068597Y-116988154D01*
X165051532Y-116963179D01*
X165026095Y-116946811D01*
X164998552Y-116941600D01*
X163398200Y-116938414D01*
X163398200Y-114106701D01*
X170497746Y-114106701D01*
X170572515Y-114327204D01*
X171079446Y-114484512D01*
X171607989Y-114435851D01*
X171870285Y-114327204D01*
X171945054Y-114106701D01*
X171221400Y-113383047D01*
X170497746Y-114106701D01*
X163398200Y-114106701D01*
X163398200Y-112989646D01*
X169868488Y-112989646D01*
X169917149Y-113518189D01*
X170025796Y-113780485D01*
X170246299Y-113855254D01*
X170969953Y-113131600D01*
X171472847Y-113131600D01*
X172196501Y-113855254D01*
X172417004Y-113780485D01*
X172574312Y-113273554D01*
X172525651Y-112745011D01*
X172417004Y-112482715D01*
X172196501Y-112407946D01*
X171472847Y-113131600D01*
X170969953Y-113131600D01*
X170246299Y-112407946D01*
X170025796Y-112482715D01*
X169868488Y-112989646D01*
X163398200Y-112989646D01*
X163398200Y-112156499D01*
X170497746Y-112156499D01*
X171221400Y-112880153D01*
X171945054Y-112156499D01*
X171870285Y-111935996D01*
X171363354Y-111778688D01*
X170834811Y-111827349D01*
X170572515Y-111935996D01*
X170497746Y-112156499D01*
X163398200Y-112156499D01*
X163398200Y-106426000D01*
X164064950Y-106426000D01*
X164211000Y-106279950D01*
X164211000Y-105003600D01*
X164566600Y-105003600D01*
X164566600Y-106279950D01*
X164712650Y-106426000D01*
X165521004Y-106426000D01*
X165735722Y-106337061D01*
X165900061Y-106172723D01*
X165989000Y-105958005D01*
X165989000Y-105149650D01*
X165842950Y-105003600D01*
X164566600Y-105003600D01*
X164211000Y-105003600D01*
X164191000Y-105003600D01*
X164191000Y-104648000D01*
X164211000Y-104648000D01*
X164211000Y-103371650D01*
X164566600Y-103371650D01*
X164566600Y-104648000D01*
X165842950Y-104648000D01*
X165989000Y-104501950D01*
X165989000Y-103693595D01*
X165900061Y-103478877D01*
X165735722Y-103314539D01*
X165521004Y-103225600D01*
X164712650Y-103225600D01*
X164566600Y-103371650D01*
X164211000Y-103371650D01*
X164064950Y-103225600D01*
X163398200Y-103225600D01*
X163398200Y-103072000D01*
X174675800Y-103072000D01*
X174675800Y-103568447D01*
M02*
