G04 #@! TF.FileFunction,Legend,Bot*
%FSLAX46Y46*%
G04 Gerber Fmt 4.6, Leading zero omitted, Abs format (unit mm)*
G04 Created by KiCad (PCBNEW 4.0.5) date Sunday, February 19, 2017 'PMt' 07:14:27 PM*
%MOMM*%
%LPD*%
G01*
G04 APERTURE LIST*
%ADD10C,0.100000*%
%ADD11C,0.220000*%
%ADD12C,2.352400*%
%ADD13R,2.184400X2.184400*%
%ADD14O,2.184400X2.184400*%
%ADD15C,0.200000*%
G04 APERTURE END LIST*
D10*
D11*
X172362485Y-124121171D02*
X171433914Y-124121171D01*
X171933914Y-124692600D01*
X171719628Y-124692600D01*
X171576771Y-124764029D01*
X171505342Y-124835457D01*
X171433914Y-124978314D01*
X171433914Y-125335457D01*
X171505342Y-125478314D01*
X171576771Y-125549743D01*
X171719628Y-125621171D01*
X172148200Y-125621171D01*
X172291057Y-125549743D01*
X172362485Y-125478314D01*
X171005343Y-124121171D02*
X170505343Y-125621171D01*
X170005343Y-124121171D01*
X168362486Y-124621171D02*
X169505343Y-125049743D01*
X168362486Y-125478314D01*
X167648200Y-124835457D02*
X166505343Y-124835457D01*
X166505343Y-125264029D02*
X167648200Y-125264029D01*
X166005343Y-124121171D02*
X165505343Y-125621171D01*
X165005343Y-124121171D01*
X164505343Y-125621171D02*
X164505343Y-124621171D01*
X164505343Y-124121171D02*
X164576772Y-124192600D01*
X164505343Y-124264029D01*
X164433915Y-124192600D01*
X164505343Y-124121171D01*
X164505343Y-124264029D01*
X163791057Y-124621171D02*
X163791057Y-125621171D01*
X163791057Y-124764029D02*
X163719629Y-124692600D01*
X163576771Y-124621171D01*
X163362486Y-124621171D01*
X163219629Y-124692600D01*
X163148200Y-124835457D01*
X163148200Y-125621171D01*
X161291057Y-124621171D02*
X162433914Y-125049743D01*
X161291057Y-125478314D01*
X160576771Y-124835457D02*
X159433914Y-124835457D01*
X159433914Y-125264029D02*
X160576771Y-125264029D01*
X158076771Y-124621171D02*
X158076771Y-125621171D01*
X158433914Y-124049743D02*
X158791057Y-125121171D01*
X157862485Y-125121171D01*
X157291057Y-125478314D02*
X157219629Y-125549743D01*
X157291057Y-125621171D01*
X157362486Y-125549743D01*
X157291057Y-125478314D01*
X157291057Y-125621171D01*
X156648200Y-124264029D02*
X156576771Y-124192600D01*
X156433914Y-124121171D01*
X156076771Y-124121171D01*
X155933914Y-124192600D01*
X155862485Y-124264029D01*
X155791057Y-124406886D01*
X155791057Y-124549743D01*
X155862485Y-124764029D01*
X156719628Y-125621171D01*
X155791057Y-125621171D01*
X155362486Y-124121171D02*
X154862486Y-125621171D01*
X154362486Y-124121171D01*
X168782285Y-128601171D02*
X168282285Y-130101171D01*
X167782285Y-128601171D01*
X167067999Y-130101171D02*
X167210857Y-130029743D01*
X167282285Y-129958314D01*
X167353714Y-129815457D01*
X167353714Y-129386886D01*
X167282285Y-129244029D01*
X167210857Y-129172600D01*
X167067999Y-129101171D01*
X166853714Y-129101171D01*
X166710857Y-129172600D01*
X166639428Y-129244029D01*
X166567999Y-129386886D01*
X166567999Y-129815457D01*
X166639428Y-129958314D01*
X166710857Y-130029743D01*
X166853714Y-130101171D01*
X167067999Y-130101171D01*
X165282285Y-129101171D02*
X165282285Y-130101171D01*
X165925142Y-129101171D02*
X165925142Y-129886886D01*
X165853714Y-130029743D01*
X165710856Y-130101171D01*
X165496571Y-130101171D01*
X165353714Y-130029743D01*
X165282285Y-129958314D01*
X164782285Y-129101171D02*
X164210856Y-129101171D01*
X164567999Y-128601171D02*
X164567999Y-129886886D01*
X164496571Y-130029743D01*
X164353713Y-130101171D01*
X164210856Y-130101171D01*
X162567999Y-129315457D02*
X161425142Y-129315457D01*
X161425142Y-129744029D02*
X162567999Y-129744029D01*
X158925142Y-128601171D02*
X159210856Y-128601171D01*
X159353713Y-128672600D01*
X159425142Y-128744029D01*
X159567999Y-128958314D01*
X159639428Y-129244029D01*
X159639428Y-129815457D01*
X159567999Y-129958314D01*
X159496571Y-130029743D01*
X159353713Y-130101171D01*
X159067999Y-130101171D01*
X158925142Y-130029743D01*
X158853713Y-129958314D01*
X158782285Y-129815457D01*
X158782285Y-129458314D01*
X158853713Y-129315457D01*
X158925142Y-129244029D01*
X159067999Y-129172600D01*
X159353713Y-129172600D01*
X159496571Y-129244029D01*
X159567999Y-129315457D01*
X159639428Y-129458314D01*
X158353714Y-128601171D02*
X157853714Y-130101171D01*
X157353714Y-128601171D01*
X172853713Y-132571171D02*
X172853713Y-131071171D01*
X171925141Y-132571171D02*
X172067999Y-132499743D01*
X172139427Y-132428314D01*
X172210856Y-132285457D01*
X172210856Y-131856886D01*
X172139427Y-131714029D01*
X172067999Y-131642600D01*
X171925141Y-131571171D01*
X171710856Y-131571171D01*
X171567999Y-131642600D01*
X171496570Y-131714029D01*
X171425141Y-131856886D01*
X171425141Y-132285457D01*
X171496570Y-132428314D01*
X171567999Y-132499743D01*
X171710856Y-132571171D01*
X171925141Y-132571171D01*
X170139427Y-131571171D02*
X170139427Y-132571171D01*
X170782284Y-131571171D02*
X170782284Y-132356886D01*
X170710856Y-132499743D01*
X170567998Y-132571171D01*
X170353713Y-132571171D01*
X170210856Y-132499743D01*
X170139427Y-132428314D01*
X169639427Y-131571171D02*
X169067998Y-131571171D01*
X169425141Y-131071171D02*
X169425141Y-132356886D01*
X169353713Y-132499743D01*
X169210855Y-132571171D01*
X169067998Y-132571171D01*
X167425141Y-131785457D02*
X166282284Y-131785457D01*
X166282284Y-132214029D02*
X167425141Y-132214029D01*
X164139427Y-131071171D02*
X163996570Y-131071171D01*
X163853713Y-131142600D01*
X163782284Y-131214029D01*
X163710855Y-131356886D01*
X163639427Y-131642600D01*
X163639427Y-131999743D01*
X163710855Y-132285457D01*
X163782284Y-132428314D01*
X163853713Y-132499743D01*
X163996570Y-132571171D01*
X164139427Y-132571171D01*
X164282284Y-132499743D01*
X164353713Y-132428314D01*
X164425141Y-132285457D01*
X164496570Y-131999743D01*
X164496570Y-131642600D01*
X164425141Y-131356886D01*
X164353713Y-131214029D01*
X164282284Y-131142600D01*
X164139427Y-131071171D01*
X162996570Y-132428314D02*
X162925142Y-132499743D01*
X162996570Y-132571171D01*
X163067999Y-132499743D01*
X162996570Y-132428314D01*
X162996570Y-132571171D01*
X162425141Y-131071171D02*
X161425141Y-131071171D01*
X162067998Y-132571171D01*
X160139427Y-131071171D02*
X160853713Y-131071171D01*
X160925142Y-131785457D01*
X160853713Y-131714029D01*
X160710856Y-131642600D01*
X160353713Y-131642600D01*
X160210856Y-131714029D01*
X160139427Y-131785457D01*
X160067999Y-131928314D01*
X160067999Y-132285457D01*
X160139427Y-132428314D01*
X160210856Y-132499743D01*
X160353713Y-132571171D01*
X160710856Y-132571171D01*
X160853713Y-132499743D01*
X160925142Y-132428314D01*
X159496571Y-132142600D02*
X158782285Y-132142600D01*
X159639428Y-132571171D02*
X159139428Y-131071171D01*
X158639428Y-132571171D01*
X156996571Y-132571171D02*
X156996571Y-131071171D01*
X156496571Y-132142600D01*
X155996571Y-131071171D01*
X155996571Y-132571171D01*
X155353714Y-132142600D02*
X154639428Y-132142600D01*
X155496571Y-132571171D02*
X154996571Y-131071171D01*
X154496571Y-132571171D01*
X154139428Y-131071171D02*
X153139428Y-132571171D01*
X153139428Y-131071171D02*
X154139428Y-132571171D01*
%LPC*%
D12*
X174117000Y-104775000D03*
X152273000Y-104775000D03*
X152654000Y-136525000D03*
D13*
X164388800Y-104825800D03*
D14*
X161848800Y-104825800D03*
D13*
X164566600Y-136804400D03*
D14*
X162026600Y-136804400D03*
D15*
X161885695Y-118407000D03*
X162885695Y-118407000D03*
X161885695Y-119907000D03*
X162885695Y-119907000D03*
X162385695Y-119157000D03*
D12*
X173863000Y-136525000D03*
M02*
